<svg width="150" height="150" viewBox="0 0 150 150" fill="none" xmlns="http://www.w3.org/2000/svg">
<path d="M0 54.2855C0 35.2839 0 25.783 3.69798 18.5253C6.95084 12.1413 12.1413 6.95084 18.5253 3.69798C25.783 0 35.2839 0 54.2855 0H95.7145C114.716 0 124.217 0 131.474 3.69798C137.859 6.95084 143.049 12.1413 146.302 18.5253C150 25.783 150 35.2839 150 54.2855V95.7145C150 114.716 150 124.217 146.302 131.474C143.049 137.859 137.859 143.049 131.474 146.302C124.217 150 114.716 150 95.7145 150H54.2855C35.2839 150 25.783 150 18.5253 146.302C12.1413 143.049 6.95084 137.859 3.69798 131.474C0 124.217 0 114.716 0 95.7145V54.2855Z" fill="#00005B"/>
<path d="M63.1569 94.0917H39.9128L35.1835 109.189C35.0522 109.748 34.5367 110.145 33.9759 110.118H22.2029C21.5315 110.118 21.2967 109.739 21.4985 108.982L41.6233 49.7817C41.8247 49.1629 42.0259 48.5576 42.2273 47.7658C42.4905 46.3885 42.6253 44.9892 42.6298 43.5862C42.5721 43.1715 42.93 42.8042 43.3339 42.8635H59.3335C59.8023 42.8635 60.0702 43.0354 60.1382 43.3794L82.9805 109.085C83.1814 109.774 82.98 110.118 82.3768 110.118H69.2952C68.8366 110.17 68.3984 109.855 68.2891 109.395L63.1569 94.0917ZM43.5353 81.3626H59.4343C56.8221 72.4365 53.8741 63.6283 51.4848 54.6326C48.7773 63.9637 46.2771 72.6176 43.5353 81.3626Z" fill="#9999FF"/>
<path d="M99.9686 88.2628C100.894 95.9283 107.331 99.5829 114.459 99.427C118.478 99.3483 122.773 98.7242 126.529 97.2044C126.864 96.9306 127.032 97.1015 127.032 97.7208V107.525C127.064 108.035 126.851 108.491 126.429 108.763C121.76 110.884 116.402 111.523 111.339 111.442C96.2438 111.442 85.8772 100.806 85.8815 85.3313C85.8418 70.6667 95.3556 58.2949 110.132 58.2949C122.657 57.9703 131.329 67.9983 131.364 80.481C131.364 82.754 131.237 85.0356 130.961 87.292C130.908 87.757 130.512 88.1181 130.055 88.1181C120.052 88.1181 110 88.2628 99.9686 88.2628ZM99.9686 78.861C105.544 78.861 111.151 79.0581 116.723 78.8095C117.56 78.7238 118.182 78.5647 118.182 77.6942C118.066 73.0667 114.16 69.2604 109.629 69.4378C104.154 69.0981 100.65 73.7203 99.9686 78.861Z" fill="#9999FF"/>
</svg>
