<svg width="100" height="150" viewBox="0 0 100 150" fill="none" xmlns="http://www.w3.org/2000/svg">
<path d="M74.9999 100C88.807 100 99.9999 88.8071 99.9999 75C99.9999 61.1929 88.807 50 74.9999 50C61.1928 50 49.9999 61.1929 49.9999 75C49.9999 88.8071 61.1928 100 74.9999 100Z" fill="#19BCFE"/>
<path fill-rule="evenodd" clip-rule="evenodd" d="M25 150C38.8071 150 50 138.807 50 125C50 121.231 50 112.897 50 99.9999C38.769 99.9999 30.4357 99.9999 25 99.9999C11.1929 99.9999 1.52588e-05 111.193 1.52588e-05 125C1.52588e-05 138.807 11.1929 150 25 150Z" fill="#09CF83"/>
<path fill-rule="evenodd" clip-rule="evenodd" d="M25 100C29.6024 100 37.9357 100 50 100V50C37.9357 50 29.6024 50 25 50C11.1929 50 1.52588e-05 61.1929 1.52588e-05 75C1.52588e-05 88.8071 11.1929 100 25 100Z" fill="#A259FF"/>
<path fill-rule="evenodd" clip-rule="evenodd" d="M25 50C29.6024 50 37.9357 50 50 50V0C37.9357 0 29.6024 0 25 0C11.1929 0 0 11.1929 0 25C0 38.8071 11.1929 50 25 50Z" fill="#F24E1E"/>
<path fill-rule="evenodd" clip-rule="evenodd" d="M74.9999 50H49.9999V0H74.9999C88.807 0 99.9999 11.1929 99.9999 25C99.9999 38.8071 88.807 50 74.9999 50Z" fill="#FF7262"/>
</svg>
