<svg width="168" height="150" viewBox="0 0 168 150" fill="none" xmlns="http://www.w3.org/2000/svg">
<path d="M3.84797 108.747L59.391 13.6583C66.4464 17.8119 102.023 37.5012 107.769 41.2453L52.226 136.34C46.1514 144.365 -3.84776 120.925 3.84797 108.742V108.747Z" fill="#FBBC04"/>
<path d="M163.432 108.745L107.889 13.662C100.124 0.739591 83.4004 -3.9563 69.6646 3.67597C55.9288 11.3082 51.7464 27.7496 59.5113 41.2489L115.054 136.344C122.819 149.26 139.543 153.956 153.279 146.324C166.415 138.692 171.197 121.668 163.432 108.757V108.745Z" fill="#4285F4"/>
<path d="M27.8811 149.999C43.2795 149.999 55.7623 137.826 55.7623 122.81C55.7623 107.794 43.2795 95.6213 27.8811 95.6213C12.4828 95.6213 0 107.794 0 122.81C0 137.826 12.4828 149.999 27.8811 149.999Z" fill="#34A853"/>
</svg>
