<svg width="150" height="150" viewBox="0 0 150 150" fill="none" xmlns="http://www.w3.org/2000/svg">
<path d="M0 54.2855C0 35.2839 0 25.783 3.69798 18.5253C6.95084 12.1413 12.1413 6.95084 18.5253 3.69798C25.783 0 35.2839 0 54.2855 0H95.7145C114.716 0 124.217 0 131.474 3.69798C137.859 6.95084 143.049 12.1413 146.302 18.5253C150 25.783 150 35.2839 150 54.2855V95.7145C150 114.716 150 124.217 146.302 131.474C143.049 137.859 137.859 143.049 131.474 146.302C124.217 150 114.716 150 95.7145 150H54.2855C35.2839 150 25.783 150 18.5253 146.302C12.1413 143.049 6.95084 137.859 3.69798 131.474C0 124.217 0 114.716 0 95.7145V54.2855Z" fill="#330000"/>
<path d="M74.7284 93.7659H51.4843L46.755 108.834C46.6238 109.394 46.1084 109.79 45.5475 109.762H33.7743C33.1029 109.762 32.8682 109.384 33.07 108.627L53.1948 49.181C53.3962 48.5617 53.5977 47.8567 53.7986 47.0655C54.0621 45.6882 54.1966 44.2889 54.2014 42.8859C54.1436 42.4712 54.5079 42.105 54.9054 42.1631H70.905C71.3738 42.1631 71.6416 42.3351 71.7096 42.6791L94.552 108.73C94.7529 109.419 94.552 109.763 93.9482 109.762H80.8666C80.408 109.815 79.9698 109.5 79.8605 109.04L74.7284 93.7659ZM55.1068 80.7619H71.0057C68.3936 71.8358 65.4455 63.0271 63.0563 54.0319C60.4784 63.0426 57.6659 72.0169 55.1068 80.7619Z" fill="#FF9A00"/>
<path d="M108.135 53.1025C107.109 53.1448 106.085 52.9643 105.131 52.5732C104.178 52.1822 103.315 51.5886 102.601 50.8322C101.888 50.0425 101.334 49.1168 100.971 48.107C100.609 47.0977 100.444 46.0247 100.487 44.9495C100.451 43.885 100.633 42.8248 101.023 41.8378C101.414 40.8508 102.003 39.9593 102.752 39.2215C103.493 38.4914 104.368 37.9194 105.327 37.5385C106.286 37.1576 107.308 36.9755 108.336 37.0026C110.751 37.0026 112.646 37.7423 114.021 39.2215C114.716 39.9903 115.255 40.8919 115.609 41.8747C115.963 42.8575 116.125 43.9027 116.084 44.9495C116.126 46.0284 115.956 47.1057 115.585 48.1161C115.213 49.1264 114.647 50.05 113.921 50.8322C113.162 51.5998 112.255 52.1977 111.26 52.5888C110.264 52.9793 109.2 53.1545 108.135 53.1025ZM101.192 108.73V59.3982C101.192 58.7789 101.459 58.4693 101.997 58.4693H114.374C114.91 58.4693 115.178 58.7789 115.179 59.3982V108.73C115.179 109.419 114.91 109.763 114.374 109.762H102.097C101.494 109.762 101.192 109.418 101.192 108.73Z" fill="#FF9A00"/>
</svg>
