<svg width="150" height="150" viewBox="0 0 150 150" fill="none" xmlns="http://www.w3.org/2000/svg">
<path d="M150 0H0V150H150V0Z" fill="#F1DC50"/>
<path d="M75 68.75C75 98.4325 75 115.099 75 118.75C75 124.226 71.732 131.25 62.5 131.25C47.5914 131.25 46.875 118.75 46.875 118.75M129.937 84.4752C126.187 78.1584 121.215 75 115.022 75C105.352 75 100 81.25 100 87.5C100 93.75 103.125 100 115.678 103.125C123.665 105.114 131.25 109.375 131.25 118.75C131.25 128.125 123.028 131.25 115.625 131.25C106.164 131.25 99.9135 127.083 96.875 118.75" stroke="#333333" stroke-width="12"/>
</svg>
