<svg width="150" height="150" viewBox="0 0 150 150" fill="none" xmlns="http://www.w3.org/2000/svg">
<path d="M21.4286 0H128.571C140.357 0 150 9.64286 150 21.4286V128.571C150 140.357 140.357 150 128.571 150H21.4286C9.64286 150 0 140.357 0 128.571V21.4286C0 9.64286 9.64286 0 21.4286 0Z" fill="#0082FF"/>
<path d="M28.9286 88.9286C28.9286 69.6429 38.5714 50.3572 49.8214 50.3572C55.7143 50.3572 61.0714 54.1072 69.1071 65.3572C61.6071 76.6072 57.3214 84.1072 57.3214 84.1072C47.1428 99.6429 43.9286 103.393 38.0357 103.393C32.1428 102.857 28.9286 98.0358 28.9286 88.9286ZM94.8214 81.9644L87.8571 70.7144C86.25 67.5001 84.1071 64.8215 82.5 62.1429C88.9286 52.5001 93.75 47.6786 100.179 47.6786C113.036 47.6786 123.214 66.4286 123.214 89.4644C123.214 98.0358 120.536 103.393 114.643 103.393C108.214 102.857 105.536 99.1072 94.8214 81.9644ZM76.6071 54.1072C66.9643 42.3215 59.4643 37.5001 49.8214 37.5001C30.5357 37.5001 16.0714 62.6786 16.0714 88.9286C16.0714 105.536 24.1071 115.714 37.5 115.714C47.1428 115.714 54.1071 111.429 66.4286 89.4644C66.4286 89.4644 71.7857 80.3572 75 73.9286C76.0714 76.0715 77.6786 78.2144 78.75 80.3572L84.6428 90.0001C95.8928 108.75 102.321 115.179 113.571 115.179C126.429 115.179 133.929 104.464 133.929 87.8572C133.929 60.0001 118.929 36.9644 100.714 36.9644C91.0714 37.5001 83.5714 45.0001 76.6071 54.1072Z" fill="white"/>
</svg>
