<svg width="150" height="150" viewBox="0 0 150 150" fill="none" xmlns="http://www.w3.org/2000/svg">
<path d="M0 54.2855C0 35.2839 0 25.783 3.69798 18.5253C6.95084 12.1413 12.1413 6.95084 18.5253 3.69798C25.783 0 35.2839 0 54.2855 0H95.7145C114.716 0 124.217 0 131.474 3.69798C137.859 6.95084 143.049 12.1413 146.302 18.5253C150 25.783 150 35.2839 150 54.2855V95.7145C150 114.716 150 124.217 146.302 131.474C143.049 137.859 137.859 143.049 131.474 146.302C124.217 150 114.716 150 95.7145 150H54.2855C35.2839 150 25.783 150 18.5253 146.302C12.1413 143.049 6.95084 137.859 3.69798 131.474C0 124.217 0 114.716 0 95.7145V54.2855Z" fill="#001E36"/>
<path d="M32.1429 109.908V43.9468C32.1429 43.4984 32.3304 43.2418 32.7679 43.2418C39.2266 43.2418 45.6825 42.8572 52.1427 42.8572C62.6261 42.8572 73.9768 46.4416 77.9555 57.4082C78.893 60.1007 79.3928 62.857 79.3928 65.7418C79.3928 71.2549 78.143 75.8057 75.6429 79.3956C68.6593 89.4231 56.5554 89.2672 45.7055 89.2672V109.844C45.7902 110.454 45.2711 110.742 44.768 110.742H32.8929C32.3929 110.742 32.1429 110.485 32.1429 109.908ZM45.7677 55.6136V77.152C50.07 77.467 54.5716 77.5013 58.7052 76.1266C63.2689 74.8099 65.768 70.86 65.768 66.1265C65.8945 62.0931 63.697 58.2231 59.9555 56.7675C55.8718 55.0693 50.1761 54.9675 45.7677 55.6136Z" fill="#31A8FF"/>
<path d="M118.375 72.8969C116.484 71.9 114.47 71.1709 112.387 70.7294C109.712 70.1 99.1596 67.895 99.1553 73.4128C99.2491 76.4932 104.139 78.0023 106.3 78.8825C113.885 81.4866 122.468 86.1414 122.299 95.4987C122.531 107.147 111.245 111.804 101.57 111.805C96.5341 111.857 91.2873 111.077 86.678 108.915C86.2376 108.682 85.9548 108.184 85.9735 107.677V96.5305C85.9237 96.0837 86.4037 95.6932 86.7787 96.0146C91.2948 98.7457 96.6476 100.072 101.872 100.143C104.179 100.143 108.749 99.9194 108.715 96.5305C108.715 93.2787 103.247 91.7836 101.067 90.9575C97.9076 89.8298 94.9119 88.2671 92.1621 86.3134C88.3189 83.5721 85.9082 79.1771 85.9735 74.3418C85.951 63.3735 96.3401 58.4503 105.696 58.4482C110.07 58.4118 114.767 58.7359 118.839 60.5123C119.424 60.6843 119.545 61.3014 119.543 61.8537V72.2777C119.58 72.9248 118.862 73.145 118.375 72.8969Z" fill="#31A8FF"/>
</svg>
