<svg width="150" height="150" viewBox="0 0 150 150" fill="none" xmlns="http://www.w3.org/2000/svg">
<path d="M75 150C116.421 150 150 116.421 150 75C150 33.5786 116.421 0 75 0C33.5786 0 0 33.5786 0 75C0 116.421 33.5786 150 75 150Z" fill="#8892BF"/>
<path d="M66.3385 43H75.2876L72.7584 56.5668H80.7998C85.2099 56.662 88.4949 57.6563 90.6571 59.5503C92.8619 61.4438 93.5107 65.0438 92.603 70.347L88.2579 94H79.1788L83.329 71.4123C83.761 69.0442 83.6315 67.3635 82.9401 66.3692C82.2487 65.3749 80.7572 64.8777 78.4656 64.8777L71.2669 64.8068L65.9491 94H57L66.3385 43Z" fill="white"/>
<path fill-rule="evenodd" clip-rule="evenodd" d="M25.2026 56H42.4494C47.5113 56.0468 51.1798 57.6599 53.4539 60.8364C55.7279 64.0135 56.4786 68.3521 55.7063 73.8533C55.4066 76.3673 54.741 78.8323 53.7113 81.2511C52.7244 83.6693 51.3521 85.8502 49.5929 87.7947C47.4473 90.2603 45.1521 91.8249 42.7068 92.4896C40.2614 93.1538 37.7297 93.4853 35.1131 93.4853H27.3906L24.9452 107H16L25.2026 56ZM28.8708 85.4476L32.7191 64.1798H34.0191C34.4914 64.1798 34.9844 64.1556 35.4992 64.1088C38.9318 64.0614 41.784 64.4172 44.0584 65.1756C46.3748 65.9339 47.1471 68.8032 46.3748 73.7822C45.4317 79.7102 43.5859 83.1714 40.8406 84.1671C38.0952 85.116 34.6626 85.566 30.544 85.5186H29.643C29.3856 85.5186 29.1282 85.4944 28.8708 85.4476Z" fill="white"/>
<path fill-rule="evenodd" clip-rule="evenodd" d="M120.449 56H103.202L94 107H102.945L105.391 93.4853H113.113C115.73 93.4853 118.261 93.1538 120.707 92.4896C123.153 91.8249 125.447 90.2603 127.593 87.7947C129.352 85.8502 130.724 83.6693 131.711 81.2511C132.741 78.8323 133.406 76.3673 133.706 73.8533C134.478 68.3521 133.728 64.0135 131.454 60.8364C129.18 57.6599 125.512 56.0468 120.449 56ZM110.719 64.1798L106.871 85.4476C107.128 85.4944 107.386 85.5186 107.643 85.5186H108.544C112.663 85.566 116.095 85.116 118.841 84.1671C121.586 83.1714 123.432 79.7102 124.375 73.7822C125.148 68.8032 124.375 65.9339 122.058 65.1756C119.784 64.4172 116.932 64.0614 113.499 64.1088C112.984 64.1556 112.492 64.1798 112.019 64.1798H110.719Z" fill="white"/>
</svg>
