<svg width="132" height="150" viewBox="0 0 132 150" fill="none" xmlns="http://www.w3.org/2000/svg">
<path fill-rule="evenodd" clip-rule="evenodd" d="M96.3972 21.8582C98.8552 24.311 101.641 27.0891 101.641 27.0891C101.641 27.0891 113.11 27.9421 113.651 27.989C114.197 28.0359 114.855 28.4531 114.957 29.2078C115.06 29.9625 131.25 139.973 131.25 139.973L91.5222 148.609L96.3972 21.8582ZM90.3028 17.6912C89.9985 17.7307 89.7344 17.7907 89.5507 17.8453C89.4528 17.8735 87.811 18.3844 85.0916 19.2282C82.4283 11.5313 77.7313 4.45786 69.4707 4.45786C69.2422 4.45786 69.0043 4.46725 68.7711 4.48132C66.4202 1.35944 63.5097 0 60.9956 0C41.7459 0 32.5478 24.1875 29.6652 36.4735C22.1836 38.8032 16.871 40.4578 16.1946 40.6734C12.0154 41.9906 11.8848 42.122 11.339 46.0735C10.9239 49.0688 0 133.974 0 133.974L85.1243 150L85.2148 149.98L90.3028 17.6912ZM68.1414 23.6626C68.1414 23.9579 68.1367 24.2297 68.1367 24.5016C63.4491 25.9594 58.3603 27.5438 53.2575 29.1328C56.1214 18.0235 61.4901 12.6562 66.187 10.6312C67.3671 13.6124 68.1414 17.8923 68.1414 23.6626ZM60.4639 5.18913C61.2988 5.18913 62.1338 5.47505 62.936 6.02818C56.7651 8.9438 50.1557 16.2937 47.3618 30.9656C43.2805 32.2359 39.2924 33.4781 35.603 34.6266C38.8727 23.4328 46.6388 5.18913 60.4639 5.18913ZM63.7803 70.6032C63.7803 70.6032 58.7987 67.9312 52.6931 67.9312C43.7375 67.9312 43.2851 73.5797 43.2851 75C43.2851 82.7672 63.4258 85.7437 63.4258 103.931C63.4258 118.237 54.3956 127.453 42.217 127.453C27.6036 127.453 20.1313 118.312 20.1313 118.312L24.0447 105.323C24.0447 105.323 31.7269 111.952 38.2103 111.952C42.4409 111.952 44.1667 108.6 44.1667 106.153C44.1667 96.0234 27.6409 95.5687 27.6409 78.9234C27.6409 64.9172 37.6459 51.3609 57.8425 51.3609C65.6227 51.3609 69.4707 53.6016 69.4707 53.6016L63.7803 70.6032ZM73.1836 22.9313C73.1836 22.4204 73.1883 21.9188 73.1883 21.3703C73.1883 16.5891 72.5259 12.7359 71.4671 9.68437C75.7257 10.2187 78.5615 15.089 80.3853 20.6905C78.249 21.3562 75.8189 22.111 73.1836 22.9313Z" fill="#81BF37"/>
</svg>
