<svg width="150" height="150" viewBox="0 0 150 150" fill="none" xmlns="http://www.w3.org/2000/svg">
<path fill-rule="evenodd" clip-rule="evenodd" d="M0 74.9963C0 104.683 17.2502 130.338 42.2677 142.492L6.4923 44.4755C2.33444 53.799 0 64.1211 0 74.9963ZM125.628 71.2133C125.628 61.9413 122.295 55.5242 119.445 50.5319C115.643 44.3491 112.076 39.1177 112.076 32.9395C112.076 26.0441 117.302 19.6268 124.671 19.6268C125.004 19.6268 125.318 19.6689 125.642 19.6877C112.301 7.46251 94.5208 0 74.9971 0C48.7937 0 25.745 13.4439 12.3339 33.802C14.0964 33.8582 15.7558 33.891 17.1621 33.891C25.0044 33.891 37.1499 32.9395 37.1499 32.9395C41.1905 32.7004 41.6686 38.6442 37.6279 39.1176C37.6279 39.1176 33.5638 39.5957 29.045 39.8348L56.3548 121.07L72.7705 71.8462L61.0892 39.8348C57.0485 39.5957 53.2188 39.1176 53.2188 39.1176C49.1781 38.8786 49.6516 32.7004 53.6969 32.9395C53.6969 32.9395 66.0815 33.891 73.4503 33.891C81.2926 33.891 93.438 32.9395 93.438 32.9395C97.4834 32.7004 97.9568 38.6442 93.9162 39.1176C93.9162 39.1176 89.8474 39.5957 85.3333 39.8348L112.437 120.452L119.923 95.4574C123.157 85.0791 125.628 77.6306 125.628 71.2133ZM140.81 39.016C141.133 41.4066 141.316 43.9661 141.316 46.7271C141.316 54.335 139.891 62.8897 135.611 73.5914L112.703 139.822C135.002 126.823 149.997 102.664 149.997 74.9976C149.997 61.9568 146.664 49.6989 140.81 39.016ZM76.3143 81.5569L53.8094 146.944C60.5313 148.922 67.6377 150 74.9971 150C83.7301 150 92.1068 148.491 99.9022 145.748C99.7053 145.425 99.5177 145.087 99.3677 144.717L76.3143 81.5569Z" fill="#00759D"/>
</svg>
